<?xml version="1.0" encoding="iso-8859-1"?>
<!-- Generator: Adobe Illustrator 21.0.0, SVG Export Plug-In . SVG Version: 6.00 Build 0)  -->
<svg xmlns="http://www.w3.org/2000/svg" xmlns:xlink="http://www.w3.org/1999/xlink" version="1.1" id="Capa_1" x="0px" y="0px" viewBox="0 0 512 512" style="enable-background:new 0 0 512 512;" xml:space="preserve" width="100%" height="100%">
<g>
	<g>
		<path d="M512,256c0-13.439-10.877-24.386-24.291-24.499c-3.334-31.591-13.084-62.277-28.684-89.905    c-6.383-11.303-13.706-22.045-21.859-32.108c9.399-9.564,9.353-25.002-0.146-34.516c-9.504-9.489-24.935-9.538-34.505-0.142    c-7.197-5.832-14.745-11.241-22.603-16.186c-3.509-2.207-8.136-1.153-10.343,2.354c-2.205,3.506-1.151,8.136,2.354,10.342    c30.648,19.282,56.252,46.126,74.041,77.63C464.306,181.454,474,218.463,474,256c0,56.259-21.304,111.603-63.851,154.149    C368.897,451.401,314.121,474,256,474c-56.208,0-111.57-21.271-154.149-63.851C60.836,369.135,38,314.457,38,256    c0-56.853,21.712-112.011,63.851-154.149C142.943,60.758,197.654,38,256,38c32.057,0,61.806,6.809,88.681,18.791    c3.784,1.688,8.217-0.013,9.903-3.796c1.688-3.783-0.013-8.217-3.796-9.904c-22.434-10.002-45.989-16.305-70.29-18.829    C280.37,10.862,269.43,0,256,0c-13.431,0-24.372,10.863-24.499,24.264c-44.891,4.661-86.997,22.101-122.035,50.547    c-9.568-9.377-24.987-9.322-34.493,0.169c-9.483,9.497-9.537,24.916-0.161,34.485c-28.446,35.039-45.887,77.145-50.547,122.036    C10.863,231.628,0,242.569,0,256s10.863,24.372,24.264,24.499c4.661,44.891,22.101,86.997,50.547,122.036    c-9.376,9.566-9.323,24.987,0.169,34.493c4.776,4.769,11.049,7.153,17.323,7.153c6.202,0,12.404-2.331,17.162-6.992    c35.039,28.446,77.145,45.886,122.036,50.547C231.628,501.137,242.569,512,256,512s24.372-10.863,24.499-24.264    c44.891-4.661,86.997-22.101,122.035-50.547c4.756,4.661,10.955,6.992,17.157,6.991c6.276,0,12.555-2.387,17.336-7.161    c9.483-9.497,9.537-24.916,0.161-34.485c28.446-35.039,45.887-77.145,50.547-122.036C501.137,280.372,512,269.431,512,256z     M426.412,85.579c3.392,3.397,3.676,8.746,0.857,12.468c-4.258-4.614-8.7-9.057-13.314-13.317    C417.677,81.911,423.023,82.194,426.412,85.579z M497,256c0,4.792-3.567,8.766-8.185,9.409c0.257-6.511,0.239-12.793-0.005-18.818    C493.431,247.231,497,251.206,497,256z M256,15c4.792,0,8.766,3.567,9.408,8.185c-6.264-0.246-12.553-0.246-18.817,0.001    C247.234,18.567,251.208,15,256,15z M85.58,85.587c3.392-3.388,8.731-3.675,12.452-0.868c-4.601,4.252-9.055,8.706-13.312,13.312    C81.913,94.307,82.201,88.971,85.58,85.587z M15,256c0-4.792,3.567-8.766,8.185-9.409c-0.247,6.265-0.247,12.553,0,18.817    C18.567,264.766,15,260.792,15,256z M85.588,426.421c-3.387-3.392-3.676-8.731-0.869-12.452    c4.148,4.489,8.585,8.944,13.312,13.312C94.308,430.087,88.971,429.801,85.588,426.421z M256,497    c-4.792,0-8.766-3.567-9.409-8.185c6.265,0.247,12.553,0.247,18.817,0C264.766,493.433,260.792,497,256,497z M426.42,426.413    c-3.392,3.388-8.731,3.675-12.452,0.868c4.601-4.251,9.055-8.705,13.312-13.312C430.087,417.693,429.799,423.029,426.42,426.413z"/>
		<path d="M67.086,205.037c-4.036-0.923-8.061,1.6-8.984,5.638C54.716,225.461,53,240.711,53,256c0,111.935,91.065,203,203,203    s203-91.065,203-203S367.935,53,256,53c-40.987,0-80.512,12.211-114.301,35.312c-32.977,22.546-58.405,53.91-73.538,90.702    c-1.575,3.831,0.253,8.214,4.084,9.789c3.833,1.578,8.213-0.253,9.789-4.083c14.017-34.079,37.576-63.135,68.131-84.025    C181.449,79.306,218.046,68,256,68c103.663,0,188,84.336,188,188s-84.337,188-188,188S68,359.664,68,256    c0-14.164,1.589-28.288,4.723-41.979C73.647,209.983,71.123,205.961,67.086,205.037z"/>
		<path d="M176.169,316.515c4.962,0.314,9.848-1.546,13.411-5.109l84.518-84.518c2.929-2.929,2.929-7.678,0-10.606    c-2.93-2.929-7.678-2.929-10.607,0L178.973,300.8c-0.515,0.515-1.187,0.79-1.848,0.746c-10.622-0.675-20.934,3.341-28.298,11.027    c-12.863,13.428-13.29,34.834-0.972,48.733c14.065,15.872,38.057,15.992,52.434,1.616c7.307-7.307,11.121-17.417,10.466-27.734    c-0.042-0.658,0.276-1.393,0.851-1.967l121.92-121.92c0.567-0.567,1.29-0.887,1.948-0.86c10.08,0.461,19.964-3.374,27.097-10.506    c14.376-14.377,14.272-38.419-1.682-52.49c-14.041-12.387-35.541-11.816-48.943,1.295c-7.668,7.5-11.571,17.934-10.711,28.626    c0.055,0.69-0.215,1.388-0.741,1.915l-14.044,14.043c-2.93,2.929-2.93,7.677-0.001,10.606s7.678,2.929,10.606,0l14.045-14.044    c3.641-3.642,5.494-8.643,5.086-13.723c-0.502-6.239,1.775-12.326,6.248-16.701c7.818-7.648,20.352-7.985,28.533-0.769    c9.134,8.057,9.579,22.052,0.997,30.634c-4.16,4.161-9.914,6.397-15.813,6.129c-4.866-0.231-9.683,1.689-13.232,5.238    l-121.92,121.92c-3.627,3.627-5.527,8.556-5.214,13.523c0.383,6.02-1.841,11.917-6.102,16.178    c-8.547,8.544-22.513,8.17-30.601-0.958c-7.179-8.099-6.925-20.577,0.577-28.408C163.955,318.465,169.968,316.12,176.169,316.515z    "/>
	</g>
</g>















</svg>
